<?xml version="1.0" encoding="utf-8"?>
<!-- Generator: Adobe Illustrator 21.1.0, SVG Export Plug-In . SVG Version: 6.00 Build 0)  -->
<svg version="1.1" id="Laag_1" xmlns="http://www.w3.org/2000/svg" xmlns:xlink="http://www.w3.org/1999/xlink" x="0px" y="0px"
	 viewBox="0 0 95 95" style="enable-background:new 0 0 95 95;" xml:space="preserve">
<style type="text/css">
	.st0{fill:#566992;}
</style>
<g>
	<path class="st0" d="M45.3,74.2h-7.6c-0.6,0-1.1-0.5-1.1-1.1V68c-1.1-0.3-2.2-0.8-3.2-1.3L30,70c-0.4,0.4-1.1,0.4-1.5,0l-5.4-5.4
		c-0.4-0.4-0.4-1.1,0-1.5l3.4-3.4c-0.6-1-1-2.1-1.3-3.2h-4.8c-0.6,0-1.1-0.5-1.1-1.1v-7.6c0-0.6,0.5-1.1,1.1-1.1h4.8
		c0.3-1.1,0.8-2.2,1.3-3.2l-3.4-3.4c-0.4-0.4-0.4-1.1,0-1.5l5.4-5.4c0.4-0.4,1.1-0.4,1.5,0l3.4,3.4c1-0.6,2.1-1,3.2-1.3v-4.8
		c0-0.6,0.5-1.1,1.1-1.1h7.6c0.6,0,1.1,0.5,1.1,1.1v4.8c1.1,0.3,2.2,0.8,3.2,1.3l3.6-3.6c0.4-0.4,1.1-0.4,1.5,0l5.4,5.4
		c0.4,0.4,0.4,1.1,0,1.5l-3.6,3.6c0.6,1,1,2.1,1.3,3.2h5.1c0.6,0,1.1,0.5,1.1,1.1v7.6c0,0.6-0.5,1.1-1.1,1.1h-5.1
		c-0.3,1.1-0.8,2.2-1.3,3.2l3.6,3.6c0.4,0.4,0.4,1.1,0,1.5l-5.4,5.4c-0.4,0.4-1.1,0.4-1.5,0l-3.6-3.6c-1,0.6-2.1,1-3.2,1.3v5.1
		C46.3,73.7,45.9,74.2,45.3,74.2z M38.7,72h5.5v-4.9c0-0.5,0.3-0.9,0.8-1c1.5-0.4,2.9-0.9,4.2-1.7c0.4-0.3,1-0.2,1.3,0.2l3.4,3.4
		l3.9-3.9l-3.4-3.4c-0.3-0.3-0.4-0.9-0.2-1.3c0.8-1.3,1.4-2.7,1.7-4.2c0.1-0.5,0.5-0.8,1-0.8h4.9V49h-4.9c-0.5,0-0.9-0.3-1-0.8
		c-0.4-1.5-0.9-2.9-1.7-4.2c-0.3-0.4-0.2-1,0.2-1.3l3.4-3.4l-3.9-3.9l-3.4,3.4c-0.3,0.3-0.9,0.4-1.3,0.2c-1.3-0.8-2.7-1.4-4.2-1.7
		c-0.5-0.1-0.8-0.5-0.8-1v-4.5h-5.5v4.5c0,0.5-0.3,0.9-0.8,1c-1.5,0.4-2.9,0.9-4.2,1.7c-0.4,0.3-1,0.2-1.3-0.2l-3.2-3.2l-3.9,3.9
		l3.2,3.2C29,43,29,43.6,28.8,44c-0.8,1.3-1.4,2.7-1.7,4.2c-0.1,0.5-0.5,0.8-1,0.8h-4.5v5.5H26c0.5,0,0.9,0.3,1,0.8
		c0.4,1.5,0.9,2.9,1.7,4.2c0.3,0.4,0.2,1-0.2,1.3l-3.2,3.2l3.9,3.9l3.2-3.2c0.3-0.3,0.9-0.4,1.3-0.2c1.3,0.8,2.7,1.4,4.2,1.7
		c0.5,0.1,0.8,0.5,0.8,1V72z"/>
	<path class="st0" d="M41.5,62.5c-6,0-10.8-4.9-10.8-10.8s4.9-10.8,10.8-10.8c6,0,10.8,4.9,10.8,10.8S47.5,62.5,41.5,62.5z M41.5,43
		c-4.8,0-8.7,3.9-8.7,8.7s3.9,8.7,8.7,8.7c4.8,0,8.7-3.9,8.7-8.7S46.3,43,41.5,43z"/>
	<path class="st0" d="M31.7,27.5"/>
	<path class="st0" d="M16.5,45.4c-0.1,0-0.2,0-0.3,0c-0.6-0.2-0.9-0.8-0.7-1.3c2.3-7.9,8.2-14.4,15.9-17.5c0.5-0.2,1.2,0,1.4,0.6
		c0.2,0.5,0,1.2-0.6,1.4c-7,2.8-12.5,8.9-14.6,16.1C17.3,45.1,16.9,45.4,16.5,45.4z"/>
	<path class="st0" d="M16.5,44.4"/>
	<path class="st0" d="M28.8,70.7"/>
	<path class="st0" d="M72.6,76.9h-3.9c-0.6,0-1.1-0.5-1.1-1.1v-2.6c-0.5-0.2-1-0.5-1.4-0.8l-2.3,1.3c-0.2,0.1-0.5,0.2-0.8,0.1
		c-0.3-0.1-0.5-0.3-0.6-0.5l-2-3.4c-0.3-0.5-0.1-1.2,0.4-1.5l2.3-1.3c0-0.3,0-0.5,0-0.8c0-0.3,0-0.5,0-0.8l-2.3-1.3
		c-0.5-0.3-0.7-0.9-0.4-1.5l2-3.4c0.1-0.2,0.4-0.4,0.6-0.5c0.3-0.1,0.6,0,0.8,0.1l2.3,1.3c0.4-0.3,0.9-0.6,1.4-0.8v-2.6
		c0-0.6,0.5-1.1,1.1-1.1h3.9c0.6,0,1.1,0.5,1.1,1.1v2.6c0.5,0.2,1,0.5,1.4,0.8l2.3-1.3c0.5-0.3,1.2-0.1,1.5,0.4l2,3.4
		c0.1,0.2,0.2,0.5,0.1,0.8c-0.1,0.3-0.3,0.5-0.5,0.6L78,65.5c0,0.3,0,0.5,0,0.8c0,0.3,0,0.5,0,0.8l2.3,1.3c0.2,0.1,0.4,0.4,0.5,0.6
		c0.1,0.3,0,0.6-0.1,0.8l-2,3.4c-0.1,0.2-0.4,0.4-0.6,0.5c-0.3,0.1-0.6,0-0.8-0.1L75,72.4c-0.4,0.3-0.9,0.6-1.4,0.8v2.6
		C73.6,76.4,73.1,76.9,72.6,76.9z M69.7,74.7h1.8v-2.3c0-0.5,0.3-0.9,0.7-1c0.7-0.2,1.4-0.6,2-1.1c0.3-0.3,0.8-0.4,1.2-0.1l2,1.1
		l0.9-1.5l-2-1.1c-0.4-0.2-0.6-0.7-0.5-1.1c0.1-0.4,0.1-0.8,0.1-1.1c0-0.4,0-0.8-0.1-1.1c-0.1-0.5,0.1-0.9,0.5-1.1l2-1.1l-0.9-1.5
		l-2,1.1c-0.4,0.2-0.9,0.2-1.2-0.1c-0.6-0.5-1.2-0.9-2-1.1c-0.4-0.1-0.7-0.6-0.7-1v-2.3h-1.8v2.3c0,0.5-0.3,0.9-0.7,1
		c-0.7,0.2-1.4,0.6-2,1.1c-0.3,0.3-0.8,0.4-1.2,0.1l-2-1.1l-0.9,1.5l2,1.1c0.4,0.2,0.6,0.7,0.5,1.1c-0.1,0.4-0.1,0.8-0.1,1.1
		c0,0.4,0,0.8,0.1,1.1c0.1,0.5-0.1,0.9-0.5,1.1l-2,1.1l0.9,1.5l2-1.1c0.4-0.2,0.9-0.2,1.2,0.1c0.6,0.5,1.2,0.9,2,1.1
		c0.4,0.1,0.7,0.6,0.7,1V74.7z"/>
	<path class="st0" d="M70.6,69.9c-2,0-3.6-1.6-3.6-3.6c0-2,1.6-3.6,3.6-3.6c2,0,3.6,1.6,3.6,3.6C74.1,68.3,72.6,69.9,70.6,69.9z
		 M70.6,64.9c-0.8,0-1.4,0.6-1.4,1.4c0,0.8,0.6,1.4,1.4,1.4c0.8,0,1.4-0.6,1.4-1.4C72,65.5,71.4,64.9,70.6,64.9z"/>
	<polygon class="st0" points="84.9,29.6 69.2,29.6 72.4,32.8 62.3,43 71.5,52.2 81.7,42 84.9,45.3 	"/>
	<path class="st0" d="M10.9,52.8c-0.6,0-1.1-0.5-1.1-1.1C9.8,34.2,24,20,41.5,20c0.6,0,1.1,0.5,1.1,1.1s-0.5,1.1-1.1,1.1
		C25.2,22.2,12,35.4,12,51.7C12,52.3,11.5,52.8,10.9,52.8z"/>
</g>
</svg>
