<svg id="679e9401-e35d-4b2a-b207-b02b809ec1be" data-name="Layer 1" xmlns="http://www.w3.org/2000/svg" viewBox="0 0 235.84 483.49"><title>roadmap</title><path d="M228.89,70.79l1.85-1.54c2.9-2.59,5.34-5.28,5.34-8.65,0-3.64-2.5-6.3-7-6.3a11.11,11.11,0,0,0-6.58,2.07l1.33,3.37a7.27,7.27,0,0,1,4.29-1.67c2.32,0,3.3,1.3,3.3,2.93-.06,2.35-2.19,4.6-6.58,8.52l-2.59,2.35v2.84h14.24V70.85h-7.57Z" transform="translate(-138.3 -14.16)" style="fill:#27a6df"/><path d="M246.72,54.3c-5.19,0-7.66,4.6-7.66,10.41s2.32,10.35,7.5,10.35,7.63-4.26,7.63-10.47C254.19,59.08,252.09,54.3,246.72,54.3Zm0,17.2c-1.82,0-2.93-2.19-2.9-6.79s1.14-6.86,2.87-6.86c1.88,0,2.84,2.35,2.84,6.79S248.51,71.5,246.68,71.5Z" transform="translate(-138.3 -14.16)" style="fill:#27a6df"/><polygon points="124.14 44.65 124.2 44.65 124.2 60.55 128.74 60.55 128.74 40.48 124.85 40.48 119.53 42.95 120.31 46.47 124.14 44.65" style="fill:#27a6df"/><polygon points="144.77 44.4 136.49 60.55 141.46 60.55 149.74 43.44 149.74 40.48 135.56 40.48 135.56 44.34 144.77 44.34 144.77 44.4" style="fill:#27a6df"/><path d="M228.89,452.69l1.85-1.54c2.9-2.59,5.34-5.28,5.34-8.65,0-3.64-2.5-6.3-7-6.3a11.11,11.11,0,0,0-6.58,2.07l1.33,3.37a7.28,7.28,0,0,1,4.29-1.67c2.32,0,3.3,1.3,3.3,2.93-.06,2.35-2.19,4.6-6.58,8.52l-2.59,2.35v2.84h14.24v-3.86h-7.57Z" transform="translate(-138.3 -14.16)" style="fill:#27a6df"/><path d="M246.72,436.19c-5.19,0-7.66,4.6-7.66,10.41s2.32,10.35,7.5,10.35,7.63-4.26,7.63-10.47C254.19,441,252.09,436.19,246.72,436.19Zm0,17.2c-1.82,0-2.93-2.19-2.9-6.79s1.14-6.86,2.87-6.86c1.88,0,2.84,2.35,2.84,6.79S248.51,453.4,246.68,453.4Z" transform="translate(-138.3 -14.16)" style="fill:#27a6df"/><polygon points="124.14 426.54 124.2 426.54 124.2 442.45 128.74 442.45 128.74 422.38 124.85 422.38 119.53 424.85 120.31 428.37 124.14 426.54" style="fill:#27a6df"/><path d="M273.34,451.36c0,2.72,2.35,5.59,7.44,5.59,4.66,0,7.72-2.44,7.72-6.08a5.31,5.31,0,0,0-3.68-5v-.09a4.89,4.89,0,0,0,2.9-4.42c0-2.44-1.95-5.16-6.64-5.16-4,0-7.07,2.25-7.07,5.65a4.87,4.87,0,0,0,2.9,4.39v.09A5.33,5.33,0,0,0,273.34,451.36Zm7.54-12a2.3,2.3,0,0,1,2.44,2.47,2.75,2.75,0,0,1-2,2.56c-1.61-.49-2.84-1.36-2.84-2.72A2.24,2.24,0,0,1,280.88,439.37Zm-.31,8.52c1.85.49,3.15,1.54,3.15,3.3a2.52,2.52,0,0,1-2.75,2.5,2.75,2.75,0,0,1-2.84-2.81A3,3,0,0,1,280.57,447.9Z" transform="translate(-138.3 -14.16)" style="fill:#27a6df"/><path d="M330,192.29h6.85a2.11,2.11,0,1,0,0-4.22H330a2.11,2.11,0,1,0,0,4.22Z" transform="translate(-138.3 -14.16)" style="fill:#27a6df"/><path d="M349,235.79l-10.46,5.9a2.11,2.11,0,1,0,2.07,3.68l10.46-5.9a2.11,2.11,0,0,0-2.07-3.68Z" transform="translate(-138.3 -14.16)" style="fill:#27a6df"/><path d="M349,242.73l-10.46,5.9a2.11,2.11,0,1,0,2.07,3.68l10.46-5.9a2.11,2.11,0,0,0-2.07-3.68Z" transform="translate(-138.3 -14.16)" style="fill:#27a6df"/><path d="M302.93,174.29a2.11,2.11,0,0,0,0,3l5.47,5.47a2.11,2.11,0,1,0,3-3l-5.47-5.47A2.11,2.11,0,0,0,302.93,174.29Z" transform="translate(-138.3 -14.16)" style="fill:#27a6df"/><path d="M298.55,172.89a2.11,2.11,0,1,0,3-3l-.94-.94a2.11,2.11,0,1,0-3,3Z" transform="translate(-138.3 -14.16)" style="fill:#27a6df"/><path d="M309.89,188.51h-7.74a2.11,2.11,0,1,0,0,4.22h7.74a2.11,2.11,0,1,0,0-4.22Z" transform="translate(-138.3 -14.16)" style="fill:#27a6df"/><path d="M294.64,188.51a2.11,2.11,0,1,0,0,4.22H296a2.11,2.11,0,1,0,0-4.22Z" transform="translate(-138.3 -14.16)" style="fill:#27a6df"/><path d="M308.4,198.5,302.93,204a2.11,2.11,0,0,0,3,3l5.47-5.47a2.11,2.11,0,1,0-3-3Z" transform="translate(-138.3 -14.16)" style="fill:#27a6df"/><path d="M299.1,212.89a2.1,2.1,0,0,0,1.49-.62l.94-.94a2.11,2.11,0,1,0-3-3l-.94.94a2.11,2.11,0,0,0,1.49,3.6Z" transform="translate(-138.3 -14.16)" style="fill:#27a6df"/><path d="M356.77,183.36a2.11,2.11,0,0,0,1.49-.62l5.47-5.47a2.11,2.11,0,0,0-3-3l-5.47,5.47a2.11,2.11,0,0,0,1.49,3.6Z" transform="translate(-138.3 -14.16)" style="fill:#27a6df"/><path d="M366.62,173.51a2.1,2.1,0,0,0,1.49-.62l.94-.94a2.11,2.11,0,0,0-3-3l-.94.94a2.11,2.11,0,0,0,1.49,3.6Z" transform="translate(-138.3 -14.16)" style="fill:#27a6df"/><path d="M366.62,190.62a2.11,2.11,0,0,0-2.11-2.11h-7.74a2.11,2.11,0,1,0,0,4.22h7.74A2.11,2.11,0,0,0,366.62,190.62Z" transform="translate(-138.3 -14.16)" style="fill:#27a6df"/><path d="M372,188.51H370.7a2.11,2.11,0,1,0,0,4.22H372a2.11,2.11,0,1,0,0-4.22Z" transform="translate(-138.3 -14.16)" style="fill:#27a6df"/><path d="M358.26,198.5a2.11,2.11,0,0,0-3,3l5.47,5.47a2.11,2.11,0,0,0,3-3Z" transform="translate(-138.3 -14.16)" style="fill:#27a6df"/><path d="M368.11,208.35a2.11,2.11,0,0,0-3,3l.94.94a2.11,2.11,0,0,0,3-3Z" transform="translate(-138.3 -14.16)" style="fill:#27a6df"/><path d="M189.62,169.11A15.11,15.11,0,1,0,174.51,154,15.13,15.13,0,0,0,189.62,169.11Zm0-26A10.89,10.89,0,1,1,178.73,154,10.9,10.9,0,0,1,189.62,143.11Z" transform="translate(-138.3 -14.16)" style="fill:#27a6df"/><path d="M177.19,279.1c-1.14-.43-1.61-.71-1.61-1.15s.28-.75,1.15-.75a4.45,4.45,0,0,1,1.93.46l.39-1.51a4.82,4.82,0,0,0-1.94-.44v-1.18h-1.31v1.27a2.47,2.47,0,0,0-2.26,2.38c0,1.3,1,2,2.41,2.45,1,.33,1.42.66,1.42,1.17s-.52.83-1.29.83a4.73,4.73,0,0,1-2.22-.59l-.4,1.57a5.39,5.39,0,0,0,2.28.58v1.27H177v-1.37a2.57,2.57,0,0,0,2.38-2.48C179.42,280.4,178.78,279.67,177.19,279.1Z" transform="translate(-138.3 -14.16)" style="fill:#27a6df"/><path d="M199.15,299a4.73,4.73,0,0,1-2.22-.59l-.4,1.57a5.4,5.4,0,0,0,2.28.58v1.27h1.31v-1.37A2.57,2.57,0,0,0,202.5,298c0-1.21-.64-1.94-2.24-2.51-1.14-.43-1.61-.71-1.61-1.15s.28-.75,1.15-.75a4.45,4.45,0,0,1,1.93.46l.39-1.51a4.82,4.82,0,0,0-1.94-.44v-1.18h-1.31v1.27a2.47,2.47,0,0,0-2.26,2.38c0,1.3,1,2,2.41,2.45,1,.33,1.42.66,1.42,1.17S199.92,299,199.15,299Z" transform="translate(-138.3 -14.16)" style="fill:#27a6df"/><path d="M152.41,306.33l-.12.12v-5.32a2.11,2.11,0,0,0-4.22,0v5.32l-.12-.12a2.11,2.11,0,0,0-3,3l3.72,3.72a2.11,2.11,0,0,0,3,0l3.72-3.72a2.11,2.11,0,1,0-3-3Z" transform="translate(-138.3 -14.16)" style="fill:#27a6df"/><path d="M150.18,295.6a2.11,2.11,0,0,0,2.11-2.11V292.2a2.11,2.11,0,0,0-4.22,0v1.29A2.11,2.11,0,0,0,150.18,295.6Z" transform="translate(-138.3 -14.16)" style="fill:#27a6df"/><path d="M189.62,162.86a7.46,7.46,0,0,0,5.49-2.42,2.11,2.11,0,0,0-3.11-2.85,3.3,3.3,0,0,1-4.76,0,2.11,2.11,0,0,0-3.11,2.85A7.46,7.46,0,0,0,189.62,162.86Z" transform="translate(-138.3 -14.16)" style="fill:#27a6df"/><path d="M171.85,155.66V123.39H138.3v24.69h24.55Zm-29.33-28.05h25.11v19l-3.24-2.73H142.52Z" transform="translate(-138.3 -14.16)" style="fill:#27a6df"/><path d="M159.83,130.76h-11.5a2.11,2.11,0,1,0,0,4.22h11.5a2.11,2.11,0,1,0,0-4.22Z" transform="translate(-138.3 -14.16)" style="fill:#27a6df"/><path d="M159.83,137.64h-8.37a2.11,2.11,0,1,0,0,4.22h8.38a2.11,2.11,0,1,0,0-4.22Z" transform="translate(-138.3 -14.16)" style="fill:#27a6df"/><path d="M356.9,332.22a7.13,7.13,0,0,0-5.08,2.1l-2.25,2.25V307.38a7.18,7.18,0,0,0-14.35,0v6.93l-.58,0a6.58,6.58,0,0,0-4.72,2,6.58,6.58,0,0,0-6.09-1.85v-7a7.18,7.18,0,0,0-14.35,0v27.17a2.1,2.1,0,0,0-.48-.06H257.32V237.32H309a2.09,2.09,0,0,0,.55-.08v14.14l24.06,13.89,24.06-13.89V223.71l-14.23-9.9a2.09,2.09,0,0,0-.51-.25c.16-2.47.86-8.29,4-12.88l1.24-1.6.08-.12a17.67,17.67,0,1,0-29.3,0l1.33,1.71c3.6,5.25,4,12.17,4,13.75a2.12,2.12,0,0,0-.37.18l-14.42,9v9.54a2.09,2.09,0,0,0-.55-.08H257.32V114.32a50.11,50.11,0,1,0-4.22,0V171H201.42l-.18,0a14.19,14.19,0,0,0-2.62-.25H180.29a14.08,14.08,0,0,0-14.08,13.45l-.1,2.21h46.7l-.1-2.21a14.06,14.06,0,0,0-3.82-9H253.1V283.8H201.42a2.09,2.09,0,0,0-.75.14h0a15.46,15.46,0,0,0,4.91-11.29v-2.51a15.64,15.64,0,0,0-9.72-14.38,20.76,20.76,0,0,0-40.9-1.13,15.53,15.53,0,0,0-15,15.5v2.51a15.53,15.53,0,0,0,15.51,15.51h7.2a15.29,15.29,0,0,0-.94,5.24,15.11,15.11,0,0,0,1.52,6.59,15.23,15.23,0,1,0,28.71,9.2h21.45V288H253.1V397.49a50.11,50.11,0,1,0,4.22,0V338.71H309a2.1,2.1,0,0,0,.48-.06v9.41A11,11,0,0,0,320.42,359H343.1a9.27,9.27,0,0,0,6.8-2.45L362,344.47a7.17,7.17,0,0,0-5.07-12.25ZM313.77,228.47l17.73,10.24v20.48l-17.73-10.24Zm22,30.71V238.71l17.73-10.24v20.48Zm-13.3-62.63a13.45,13.45,0,1,1,22.38,0l-1.24,1.59-.07.1c-3.52,5.1-4.47,11.27-4.73,14.45h-3.24V198.41h1.32a2.11,2.11,0,1,0,0-4.22H330a2.11,2.11,0,1,0,0,4.22h1.32v14.27h-2.84c-.26-3.19-1.22-9.35-4.73-14.45Zm6.14,23.85V216.9h10.1v3.49Zm-4.22-1v5.26h6.58v.88a2.11,2.11,0,0,0,4.22,0v-.88h7.74v-6.05l8.75,6.09-18,10.4-17.86-10.31ZM170.78,182.25a9.86,9.86,0,0,1,9.51-7.22h18.33a9.87,9.87,0,0,1,9.51,7.22Zm6.13,109a11,11,0,1,1,11-11A11,11,0,0,1,176.9,291.2Zm-11,2.2a11.06,11.06,0,0,1,.28-2.42,15.2,15.2,0,0,0,21.46,0,11,11,0,1,1-21.74,2.42Zm-21.78-20.76v-2.51a11.3,11.3,0,0,1,11.29-11.29h3.22l.2-1.89a16.54,16.54,0,0,1,32.93.51l.11,1.44,1.39.42a11.38,11.38,0,0,1,8.06,10.81v2.51a11.3,11.3,0,0,1-9.63,11.16,15.23,15.23,0,1,0-29.53.14H155.4A11.3,11.3,0,0,1,144.11,272.65Zm32.79,45a10.93,10.93,0,0,1-10.72-13.42,15.2,15.2,0,0,0,21.46,0,11,11,0,0,1-10.74,13.43ZM209.13,305H192a15,15,0,0,0-1.43-5,15.11,15.11,0,0,0,1.52-6.6,15.29,15.29,0,0,0-.94-5.24h17.93Zm.2-240.7a45.89,45.89,0,1,1,45.89,45.89A45.94,45.94,0,0,1,209.32,64.27ZM301.1,447.54a45.89,45.89,0,1,1-45.89-45.89A45.94,45.94,0,0,1,301.1,447.54Zm31.16-126.66a2.38,2.38,0,1,1,4.77,0V332.6a2.38,2.38,0,1,1-4.77,0Zm-4.68,0V332.6a2.38,2.38,0,1,1-4.77,0V320.88a2.38,2.38,0,0,1,4.77,0ZM359,341.48l-12.11,12.11-.09.1a5.4,5.4,0,0,1-3.7,1.1H320.42a6.72,6.72,0,0,1-6.71-6.71V307.38a3,3,0,1,1,5.91,0v10a6.56,6.56,0,0,0-1,3.51V332.6a6.6,6.6,0,0,0,11.33,4.61,6.6,6.6,0,0,0,11.33-4.61V320.88a6.57,6.57,0,0,0-1.8-4.52v-9a3,3,0,1,1,5.91,0v39.37l9.45-9.45a3,3,0,0,1,4.18,0,3,3,0,0,1,0,4.18Z" transform="translate(-138.3 -14.16)" style="fill:#27a6df"/></svg>