<?xml version="1.0" encoding="utf-8"?>
<!-- Generator: Adobe Illustrator 21.1.0, SVG Export Plug-In . SVG Version: 6.00 Build 0)  -->
<svg version="1.1" id="Laag_1" xmlns="http://www.w3.org/2000/svg" xmlns:xlink="http://www.w3.org/1999/xlink" x="0px" y="0px"
	 viewBox="0 0 95 95" style="enable-background:new 0 0 95 95;" xml:space="preserve">
<style type="text/css">
	.st0{fill:#566992;}
</style>
<g>
	<path fill:#566992; class="svghover st0" d="M45.2,39.3c6.3,0,11.5-5.2,11.5-11.5s-5.2-11.5-11.5-11.5s-11.5,5.2-11.5,11.5S38.9,39.3,45.2,39.3z
		 M45.2,18.2c4,0,7.4,2.4,8.8,5.9c-8.3,0.8-11.8-3.6-12.7-5.1C42.6,18.5,43.9,18.2,45.2,18.2z M38.9,20.6c-0.6,2.1-1.6,5.1-3.2,6.7
		C35.8,24.6,37,22.3,38.9,20.6z M35.9,29.6c2.6-1.6,4.1-5.7,4.8-8.2c1.9,2.2,6.1,5.5,13.9,4.6c0.1,0.6,0.2,1.2,0.2,1.8
		c0,5.3-4.3,9.6-9.6,9.6C40.6,37.4,36.7,34,35.9,29.6C35.8,29.6,35.9,29.6,35.9,29.6z"/>
	<path fill:#566992; class="svghover st0" d="M84.6,43L77,35.4c-0.4-0.4-1-0.4-1.4,0L63.5,47.5c-0.3-1.5-0.6-2.8-0.9-3.6c-1.4-3.3-11.9-5.4-11.9-5.4
		s-1.8,5.6-5.4,9.7c-3.6-4.1-5.4-9.7-5.4-9.7s-4.1,0.8-7.5,2.3c1.2-1.5,1.9-3.3,1.9-5.3c0-4.7-3.8-8.5-8.5-8.5s-8.5,3.8-8.5,8.5
		c0,3.1,1.7,5.9,4.3,7.4c0,0,0.1,0,0.1,0.1c0,0-0.1,0-0.1,0c-1.7,0.4-7.9,1.9-9,4.4c-1,2.4-2,11.2-2.1,12.2c0,0.3,0.1,0.5,0.2,0.7
		c0.2,0.2,0.4,0.3,0.7,0.3h13.9v0h18.2h3.9h3.3l-9.3,9.3c-0.2,0.2-0.3,0.5-0.3,0.7c0,0.3,0.1,0.5,0.3,0.7l7.6,7.6
		c0.2,0.2,0.5,0.3,0.7,0.3c0.3,0,0.5-0.1,0.7-0.3l34.5-34.5c0.2-0.2,0.3-0.5,0.3-0.7C84.9,43.5,84.8,43.2,84.6,43z M21.2,44.9
		c0.1,0.2,0.1,0.3,0.2,0.5c0.2,0.5,0.5,1.1,0.8,1.8c0.2,0.5,0.5,1,0.8,1.5c0.5,0.9,1.2,1.8,1.9,2.7c0.3,0.4,0.9,0.4,1.3,0.1
		c0.1,0,0.1-0.1,0.1-0.1c0.7-0.7,1.2-1.5,1.7-2.3c0.3-0.5,0.6-1,0.8-1.4c0.3-0.6,0.6-1.2,0.8-1.7c0.2-0.4,0.3-0.7,0.4-1
		c3.2,0.8,6.6,2.1,7.1,3.2c0.7,1.6,1.5,7.5,1.8,10.6H25.3h-13c0.4-3.1,1.1-9,1.8-10.6C14.6,46.9,18,45.6,21.2,44.9z M31.6,32.5
		c-5.1,0.3-7.5-2.1-8.3-3.3c0.7-0.3,1.5-0.4,2.3-0.4C28.3,28.8,30.5,30.3,31.6,32.5z M19.2,34.2c0.2-1.1,0.7-2.1,1.4-3
		C20.3,32.2,19.8,33.3,19.2,34.2z M20.4,35.7c1.1-1.3,1.7-3,2.2-4.4c1.1,1.1,2.8,2.4,5.6,2.9c1.2,0.2,2.5,0.3,4,0.1
		c0.1,0.3,0.1,0.7,0.1,1c0,2.4-1.2,4.4-3.1,5.6c-0.5,0.3-1.1,0.6-1.8,0.8c-0.6,0.2-1.1,0.2-1.7,0.2c-0.6,0-1.2-0.1-1.7-0.2
		c-0.6-0.2-1.3-0.4-1.8-0.8c-1.5-0.9-2.5-2.4-2.9-4.2C19.7,36.5,20.1,36.2,20.4,35.7z M23,43.5c0.8,0.3,1.7,0.4,2.6,0.4
		c0.8,0,1.6-0.1,2.4-0.3c0,0,0,0,0.1,0c0.2-0.1,0.4-0.1,0.5-0.2c0,0,0,0,0,0.1c0,0-0.2,0.5-0.5,1.3c-0.3,0.6-0.6,1.4-1.1,2.3
		c-0.4,0.7-0.8,1.4-1.3,2.1c-1.3-1.8-2.2-3.8-2.6-4.9c-0.2-0.5-0.3-0.8-0.3-0.9c0,0,0,0,0-0.1C22.8,43.4,22.9,43.5,23,43.5z
		 M49.5,76.8l-6.2-6.2l5.2-5.2l1.7,1.7c0.2,0.2,0.4,0.3,0.7,0.3s0.5-0.1,0.7-0.3c0.4-0.4,0.4-1,0-1.4l-1.7-1.7l1.4-1.4l3.1,3.1
		c0.2,0.2,0.4,0.3,0.7,0.3s0.5-0.1,0.7-0.3c0.4-0.4,0.4-1,0-1.4l-3.1-3.1l0.8-0.8l0.6-0.6l0.6,0.6l1.2,1.2c0.2,0.2,0.4,0.3,0.7,0.3
		c0.2,0,0.5-0.1,0.7-0.3c0.3-0.3,0.4-0.8,0.1-1.2c0-0.1-0.1-0.1-0.1-0.2l-1.7-1.7l1.4-1.4l3.1,3.1c0.1,0.1,0.2,0.1,0.2,0.2
		c0.1,0.1,0.3,0.1,0.4,0.1s0.3,0,0.4-0.1c0.1,0,0.2-0.1,0.2-0.2c0.4-0.4,0.4-1,0-1.4l-3.1-3.1l1.4-1.4l1.7,1.7
		c0.2,0.2,0.4,0.3,0.7,0.3s0.5-0.1,0.7-0.3c0.4-0.4,0.4-1,0-1.4l-1.7-1.7l1.4-1.4l2.6,2.6l0.5,0.5c0.2,0.2,0.4,0.3,0.7,0.3
		c0.2,0,0.5-0.1,0.7-0.3c0.4-0.4,0.4-1,0-1.4l-2.3-2.3l-0.8-0.8l0.6-0.6l0.8-0.8l1.7,1.7c0.2,0.2,0.4,0.3,0.7,0.3
		c0.2,0,0.5-0.1,0.7-0.3c0.4-0.4,0.4-1,0-1.4l-1.7-1.7l1.4-1.4l3.1,3.1c0.2,0.2,0.4,0.3,0.7,0.3c0.2,0,0.5-0.1,0.7-0.3
		c0.4-0.4,0.4-1,0-1.4L68.8,45l1.4-1.4l1.7,1.7c0.2,0.2,0.4,0.3,0.7,0.3c0.2,0,0.5-0.1,0.7-0.3c0.4-0.4,0.4-1,0-1.4l-1.7-1.7
		l1.4-1.4L76,44c0.2,0.2,0.4,0.3,0.7,0.3c0.2,0,0.5-0.1,0.7-0.3c0.4-0.4,0.4-1,0-1.4l-3.1-3.1l2-2l6.2,6.2L49.5,76.8z"/>
</g>
</svg>
